<svg width="21" height="19" viewBox="0 0 21 19" fill="none" xmlns="http://www.w3.org/2000/svg">
<path d="M4 2.5C4 1.8 4.5 1.20001 5.2 1.20001H9.3C9.3 1.90001 8.8 2.5 8.1 2.5H4Z" fill="white"/>
<path d="M9.4 7.59998H5.2C4.6 7.59998 4 6.99999 4 6.29999H8.2C8.9 6.29999 9.4 6.89998 9.4 7.59998Z" fill="white"/>
<path d="M15.7 5.79999C15.7 6.19999 15.6 6.60002 15.4 6.90002C15.2 7.20002 14.9 7.50001 14.5 7.70001C14.1 7.90001 13.6 8 13 8C12.5 8 12 7.89999 11.5 7.79999C11 7.59999 10.7 7.50001 10.4 7.20001C10.4 7.20001 9.6 6.49998 9.2 6.09998C8.7 5.49998 8 5 7.6 5H3.6C3.3 5 3 4.70002 3 4.40002C3 4.10002 3.2 3.79999 3.6 3.79999H7.6C8.8 3.79999 9.5 4.59999 10 5.29999C10.3 5.59999 10.9 6.09998 10.9 6.09998C11.2 6.29998 11.5 6.49998 11.9 6.59998C12.3 6.69998 12.6 6.79999 13 6.79999C13.4 6.79999 13.7 6.69998 13.9 6.59998C14.1 6.49998 14.2 6.3 14.2 6C14.2 5.8 14.1 5.69998 14 5.59998C13.9 5.49998 13.7 5.39999 13.5 5.29999C13.3 5.19999 13.1 5.19998 12.8 5.09998C12.3 4.99998 11.9 4.80001 11.6 4.70001C11.3 4.60001 11 4.39998 10.8 4.09998C10.6 3.79998 10.5 3.5 10.5 3C10.5 2.6 10.6 2.20002 10.8 1.90002C11 1.60002 11.3 1.29998 11.7 1.09998C12.1 0.899976 12.6 0.799988 13.2 0.799988C13.6 0.799988 14 0.8 14.4 1C14.8 1.1 15.1 1.3 15.4 1.5L14.9 2.79999C14.3 2.39999 13.7 2.20001 13.1 2.20001C12.7 2.20001 12.4 2.30002 12.2 2.40002C12 2.60002 11.9 2.7 11.9 3C11.9 3.2 12 3.4 12.2 3.5C12.4 3.6 12.8 3.69999 13.2 3.79999C13.7 3.89999 14.1 4.10001 14.4 4.20001C14.7 4.30001 15 4.49999 15.2 4.79999C15.5 4.99999 15.7 5.39999 15.7 5.79999Z" fill="white"/>
<path d="M2.69922 13.1C2.99922 13.1 3.19922 13 3.29922 12.8H4.19922C4.09922 13.5 3.39922 13.9 2.79922 13.9C1.89922 13.9 1.19922 13.3 1.19922 12.3C1.19922 11.4 1.79922 10.7 2.69922 10.7C3.59922 10.7 4.19922 11.4 4.19922 12.3V12.6H2.19922C2.19922 12.9 2.39922 13.1 2.69922 13.1ZM3.19922 11.9C3.19922 11.6 2.99922 11.3 2.69922 11.3C2.39922 11.3 2.19922 11.6 2.19922 11.9H3.19922Z" fill="white"/>
<path d="M4.29883 12.2C4.29883 11.2 4.69883 10.6 5.49883 10.6C5.89883 10.6 6.19883 10.8 6.39883 11V9.29999H7.39883V13.7H6.69883L6.59883 13.1C6.49883 13.5 6.19883 13.8 5.59883 13.8C4.69883 13.8 4.29883 13.2 4.29883 12.2ZM6.39883 12.4V12C6.39883 11.6 6.19883 11.3 5.79883 11.3C5.49883 11.3 5.19883 11.5 5.19883 12.2C5.19883 12.9 5.39883 13.1 5.79883 13.1C6.09883 13.1 6.39883 12.9 6.39883 12.4Z" fill="white"/>
<path d="M7.79883 10.7H8.79883V11.5C8.99883 11 9.29883 10.6 9.79883 10.6V11.6C8.99883 11.5 8.79883 11.8 8.79883 12.2V13.8H7.79883V10.7Z" fill="white"/>
<path d="M9.90039 12.9C9.90039 12.2 10.4004 11.9 11.5004 11.9H11.8004V11.7C11.8004 11.5 11.6004 11.3 11.4004 11.3C11.2004 11.3 11.0004 11.4 10.9004 11.6H10.1004C10.1004 10.9 10.7004 10.6 11.5004 10.6C12.5004 10.6 12.9004 11 12.9004 11.6V13.8H12.0004L11.9004 13.3C11.7004 13.7 11.4004 13.9 11.0004 13.9C10.4004 13.8 9.90039 13.5 9.90039 12.9ZM11.8004 12.7V12.3H11.6004C11.3004 12.3 10.9004 12.4 10.9004 12.7C10.9004 13 11.1004 13.1 11.3004 13.1C11.6004 13.2 11.8004 13 11.8004 12.7Z" fill="white"/>
<path d="M13.0996 12.9C13.0996 12.2 13.5996 11.9 14.6996 11.9H14.9996V11.7C14.9996 11.5 14.7996 11.3 14.5996 11.3C14.3996 11.3 14.1996 11.4 14.0996 11.6H13.2996C13.2996 10.9 13.8996 10.6 14.6996 10.6C15.6996 10.6 16.0996 11 16.0996 11.6V13.8H15.1996L15.0996 13.3C14.8996 13.7 14.5996 13.9 14.1996 13.9C13.4996 13.8 13.0996 13.5 13.0996 12.9ZM14.9996 12.7V12.3H14.7996C14.4996 12.3 14.0996 12.4 14.0996 12.7C14.0996 13 14.2996 13.1 14.4996 13.1C14.6996 13.2 14.9996 13 14.9996 12.7Z" fill="white"/>
<path d="M18.5004 13.8L17.7004 12.6L17.4004 12.9V13.8H16.4004V9.40002H17.4004V11.9L18.4004 10.7H19.5004L18.4004 11.9L19.5004 13.7L18.5004 13.8Z" fill="white"/>
<path d="M0.599609 16.4H1.19961C1.29961 16.8 1.59961 16.9 1.89961 16.9C2.29961 16.9 2.59961 16.7 2.59961 16.5C2.59961 16.3 2.49961 16.2 2.19961 16.1L1.59961 15.9C1.09961 15.8 0.799608 15.5 0.799608 15.1C0.799608 14.5 1.29961 14.2 1.99961 14.2C2.69961 14.2 3.19961 14.6 3.19961 15.1H2.59961C2.59961 14.8 2.29961 14.7 1.99961 14.7C1.59961 14.7 1.39961 14.9 1.39961 15.1C1.39961 15.3 1.59961 15.4 1.89961 15.5L2.49961 15.7C3.09961 15.9 3.29961 16.3 3.29961 16.6C3.29961 17.2 2.69961 17.5 2.09961 17.5C1.19961 17.4 0.699609 17.1 0.599609 16.4Z" fill="white"/>
<path d="M3.29961 18.2V17.8H3.59961C4.09961 17.8 4.19961 17.6 4.19961 17.5L4.29961 17.2L3.09961 14.2H3.69961L4.59961 16.5L5.49961 14.2H6.09961L4.79961 17.5C4.49961 18.1 4.19961 18.3 3.79961 18.3C3.39961 18.3 3.29961 18.2 3.29961 18.2Z" fill="white"/>
<path d="M6 16.4H6.6C6.7 16.8 7 16.9 7.3 16.9C7.7 16.9 8 16.7 8 16.5C8 16.3 7.9 16.2 7.6 16.1L7 15.9C6.5 15.8 6.2 15.5 6.1 15.1C6.1 14.5 6.6 14.2 7.3 14.2C8 14.2 8.5 14.6 8.5 15.1H7.9C7.9 14.8 7.6 14.7 7.3 14.7C6.9 14.7 6.7 14.9 6.7 15.1C6.7 15.3 6.9 15.4 7.2 15.5L7.8 15.7C8.4 15.9 8.6 16.3 8.6 16.6C8.6 17.2 8 17.5 7.4 17.5C6.6 17.4 6.1 17.1 6 16.4Z" fill="white"/>
<path d="M9.7 14.7V16.5C9.7 16.8 9.8 16.8 10 16.8H10.4V17.2C10.3 17.2 10.2 17.3 9.9 17.3C9.2 17.3 9 17 9 16.5V14.6H8.5V14.1H9L9.2 13.2H9.7V14.1H10.4V14.6L9.7 14.7Z" fill="white"/>
<path d="M12 16.9C12.4 16.9 12.6 16.7 12.7 16.4H13.3C13.2 17 12.6 17.4 12 17.4C11.1 17.4 10.5 16.8 10.5 15.8C10.5 14.8 11 14.2 11.9 14.2C12.8 14.2 13.3 14.8 13.3 15.7V15.9H11.1C11.2 16.5 11.5 16.9 12 16.9ZM12.7 15.5C12.7 15 12.5 14.6 11.9 14.6C11.4 14.6 11.1 15 11.1 15.5H12.7Z" fill="white"/>
<path d="M13.6 14.3H14.2V14.7C14.4 14.4 14.7 14.2 15.1 14.2C15.4 14.2 15.8 14.4 16 14.7C16.2 14.4 16.6 14.2 16.9 14.2C17.3 14.2 17.9 14.4 17.9 15.3V17.4H17.3V15.4C17.3 14.9 17 14.8 16.7 14.8C16.4 14.8 16 15 16 15.4V17.4H15.4V15.2C15.4 14.9 15.1 14.7 14.8 14.7C14.5 14.7 14.1 14.9 14.1 15.3V17.4H13.5L13.6 14.3Z" fill="white"/>
<path d="M18.2988 16.4H18.8988C18.9988 16.8 19.2988 16.9 19.5988 16.9C19.9988 16.9 20.2988 16.7 20.2988 16.5C20.2988 16.3 20.1988 16.2 19.8988 16.1L19.2988 15.9C18.7988 15.8 18.4988 15.5 18.3988 15.1C18.3988 14.5 18.8988 14.2 19.5988 14.2C20.2988 14.2 20.7988 14.6 20.7988 15.1H20.1988C20.1988 14.8 19.8988 14.7 19.5988 14.7C19.1988 14.7 18.9988 14.9 18.9988 15.1C18.9988 15.3 19.1988 15.4 19.4988 15.5L20.0988 15.7C20.6988 15.9 20.8988 16.3 20.8988 16.6C20.8988 17.2 20.2988 17.5 19.6988 17.5C18.9988 17.4 18.3988 17.1 18.2988 16.4Z" fill="white"/>
</svg>
