<svg width="5" height="6" viewBox="0 0 5 6" fill="none" xmlns="http://www.w3.org/2000/svg">
<path d="M2.49884 0C1.59884 0 0.798828 0.700012 0.798828 1.70001C0.798828 2.00001 0.89884 2.2 0.99884 2.5L2.39883 5L2.49884 5.09998C2.49884 5.09998 2.59885 5.1 2.59885 5L3.99884 2.5C4.09884 2.3 4.19885 2.00001 4.19885 1.70001C4.09885 0.800012 3.39884 0 2.49884 0ZM2.49884 2.5C1.99884 2.5 1.69885 2.10001 1.69885 1.70001C1.69885 1.20001 2.09884 0.900024 2.49884 0.900024C2.99884 0.900024 3.29883 1.30001 3.29883 1.70001C3.29883 2.20001 2.89884 2.5 2.49884 2.5Z" fill="white"/>
</svg>
