<svg width="21" height="21" viewBox="0 0 21 21" fill="none" xmlns="http://www.w3.org/2000/svg">
<path d="M0.900391 20.3H1.70039V19.5H0.900391V20.3ZM1.60039 20.3H2.40039V19.5H1.60039V20.3ZM2.40039 20.3H3.20039V19.5H2.40039V20.3ZM3.20039 20.3H4.00039V19.5H3.20039V20.3ZM4.00039 20.3H4.80039V19.5H4.00039V20.3ZM4.80039 20.3H5.60039V19.5H4.80039V20.3ZM5.50039 20.3H6.30039V19.5H5.50039V20.3ZM7.10039 20.3H7.90039V19.5H7.10039V20.3ZM7.90039 20.3H8.70039V19.5H7.90039V20.3ZM8.70039 20.3H9.50039V19.5H8.70039V20.3ZM9.40039 20.3H10.2004V19.5H9.40039V20.3ZM10.2004 20.3H11.0004V19.5H10.2004V20.3ZM11.0004 20.3H11.8004V19.5H11.0004V20.3ZM11.8004 20.3H12.6004V19.5H11.8004V20.3ZM15.7004 20.3H16.5004V19.5H15.7004V20.3ZM16.5004 20.3H17.3004V19.5H16.5004V20.3ZM17.3004 20.3H18.0004V19.5H17.2004V20.3M18.0004 20.3H18.8004V19.5H18.0004V20.3ZM18.8004 20.3H19.6004V19.5H18.8004V20.3ZM19.6004 20.3H20.4004V19.5H19.6004V20.3ZM0.900391 19.5H1.70039V18.7H0.900391V19.5ZM5.50039 19.5H6.30039V18.7H5.50039V19.5ZM7.10039 19.5H7.90039V18.7H7.10039V19.5ZM11.8004 19.5H12.6004V18.7H11.8004V19.5ZM12.6004 19.5H13.4004V18.7H12.6004V19.5ZM13.4004 19.5H14.2004V18.7H13.4004V19.5ZM14.1004 19.5H14.9004V18.7H14.1004V19.5ZM15.7004 19.5H16.5004V18.7H15.7004V19.5ZM16.5004 19.5H17.3004V18.7H16.5004V19.5ZM17.3004 19.5H18.0004V18.7H17.2004V19.5M19.6004 19.5H20.4004V18.7H19.6004V19.5ZM0.900391 18.7H1.70039V18H0.900391V18.7ZM2.40039 18.7H3.20039V18H2.40039V18.7ZM3.20039 18.7H4.00039V18H3.20039V18.7ZM4.00039 18.7H4.80039V18H4.00039V18.7ZM5.50039 18.7H6.30039V18H5.50039V18.7ZM7.10039 18.7H7.90039V18H7.10039V18.7ZM7.90039 18.7H8.70039V18H7.90039V18.7ZM11.8004 18.7H12.6004V18H11.8004V18.7ZM17.3004 18.7H18.0004V18H17.2004V18.7M18.0004 18.7H18.8004V18H18.0004V18.7ZM19.6004 18.7H20.4004V18H19.6004V18.7ZM0.900391 18H1.70039V17.2H0.900391V18ZM2.40039 18H3.20039V17.2H2.40039V18ZM3.20039 18H4.00039V17.2H3.20039V18ZM4.00039 18H4.80039V17.2H4.00039V18ZM5.50039 18H6.30039V17.2H5.50039V18ZM7.10039 18H7.90039V17.2H7.10039V18ZM9.40039 18H10.2004V17.2H9.40039V18ZM14.9004 18H15.7004V17.2H14.9004V18ZM16.5004 18H17.3004V17.2H16.5004V18ZM17.3004 18H18.0004V17.2H17.2004V18M18.0004 18H18.8004V17.2H18.0004V18ZM18.8004 18H19.6004V17.2H18.8004V18ZM19.6004 18H20.4004V17.2H19.6004V18ZM0.900391 17.2H1.70039V16.4H0.900391V17.2ZM2.40039 17.2H3.20039V16.4H2.40039V17.2ZM3.20039 17.2H4.00039V16.4H3.20039V17.2ZM4.00039 17.2H4.80039V16.4H4.00039V17.2ZM5.50039 17.2H6.30039V16.4H5.50039V17.2ZM7.10039 17.2H7.90039V16.4H7.10039V17.2ZM7.90039 17.2H8.70039V16.4H7.90039V17.2ZM11.0004 17.2H11.8004V16.4H11.0004V17.2ZM11.8004 17.2H12.6004V16.4H11.8004V17.2ZM12.6004 17.2H13.4004V16.4H12.6004V17.2ZM13.4004 17.2H14.2004V16.4H13.4004V17.2ZM14.1004 17.2H14.9004V16.4H14.1004V17.2ZM14.9004 17.2H15.7004V16.4H14.9004V17.2ZM15.7004 17.2H16.5004V16.4H15.7004V17.2ZM16.5004 17.2H17.3004V16.4H16.5004V17.2ZM18.0004 17.2H18.8004V16.4H18.0004V17.2ZM18.8004 17.2H19.6004V16.4H18.8004V17.2ZM0.900391 16.4H1.70039V15.6H0.900391V16.4ZM5.50039 16.4H6.30039V15.6H5.50039V16.4ZM7.90039 16.4H8.70039V15.6H7.90039V16.4ZM9.40039 16.4H10.2004V15.6H9.40039V16.4ZM10.2004 16.4H11.0004V15.6H10.2004V16.4ZM13.4004 16.4H14.2004V15.6H13.4004V16.4ZM16.5004 16.4H17.3004V15.6H16.5004V16.4ZM17.3004 16.4H18.0004V15.6H17.2004V16.4M0.900391 15.6H1.70039V14.8H0.900391V15.6ZM1.60039 15.6H2.40039V14.8H1.60039V15.6ZM2.40039 15.6H3.20039V14.8H2.40039V15.6ZM3.20039 15.6H4.00039V14.8H3.20039V15.6ZM4.00039 15.6H4.80039V14.8H4.00039V15.6ZM4.80039 15.6H5.60039V14.8H4.80039V15.6ZM5.50039 15.6H6.30039V14.8H5.50039V15.6ZM7.10039 15.6H7.90039V14.8H7.10039V15.6ZM11.8004 15.6H12.6004V14.8H11.8004V15.6ZM13.4004 15.6H14.2004V14.8H13.4004V15.6ZM14.9004 15.6H15.7004V14.8H14.9004V15.6ZM16.5004 15.6H17.3004V14.8H16.5004V15.6ZM18.0004 15.6H18.8004V14.8H18.0004V15.6ZM18.8004 15.6H19.6004V14.8H18.8004V15.6ZM19.6004 15.6H20.4004V14.8H19.6004V15.6ZM7.10039 14.8H7.90039V14H7.10039V14.8ZM7.90039 14.8H8.70039V14H7.90039V14.8ZM9.40039 14.8H10.2004V14H9.40039V14.8ZM10.2004 14.8H11.0004V14H10.2004V14.8ZM11.8004 14.8H12.6004V14H11.8004V14.8ZM12.6004 14.8H13.4004V14H12.6004V14.8ZM13.4004 14.8H14.2004V14H13.4004V14.8ZM16.5004 14.8H17.3004V14H16.5004V14.8ZM17.3004 14.8H18.0004V14H17.2004V14.8M0.900391 14H1.70039V13.2H0.900391V14ZM2.40039 14H3.20039V13.2H2.40039V14ZM3.20039 14H4.00039V13.2H3.20039V14ZM4.00039 14H4.80039V13.2H4.00039V14ZM5.50039 14H6.30039V13.2H5.50039V14ZM8.70039 14H9.50039V13.2H8.70039V14ZM9.40039 14H10.2004V13.2H9.40039V14ZM10.2004 14H11.0004V13.2H10.2004V14ZM11.0004 14H11.8004V13.2H11.0004V14ZM11.8004 14H12.6004V13.2H11.8004V14ZM12.6004 14H13.4004V13.2H12.6004V14ZM13.4004 14H14.2004V13.2H13.4004V14ZM14.1004 14H14.9004V13.2H14.1004V14ZM14.9004 14H15.7004V13.2H14.9004V14ZM15.7004 14H16.5004V13.2H15.7004V14ZM16.5004 14H17.3004V13.2H16.5004V14ZM18.0004 14H18.8004V13.2H18.0004V14ZM0.900391 13.3H1.70039V12.5H0.900391V13.3ZM3.20039 13.3H4.00039V12.5H3.20039V13.3ZM4.80039 13.3H5.60039V12.5H4.80039V13.3ZM7.90039 13.3H8.70039V12.5H7.90039V13.3ZM9.40039 13.3H10.2004V12.5H9.40039V13.3ZM11.8004 13.3H12.6004V12.5H11.8004V13.3ZM12.6004 13.3H13.4004V12.5H12.6004V13.3ZM13.4004 13.3H14.2004V12.5H13.4004V13.3ZM14.1004 13.3H14.9004V12.5H14.1004V13.3ZM15.7004 13.3H16.5004V12.5H15.7004V13.3ZM16.5004 13.3H17.3004V12.5H16.5004V13.3ZM19.6004 13.3H20.4004V12.5H19.6004V13.3ZM0.900391 12.5H1.70039V11.7H0.900391V12.5ZM2.40039 12.5H3.20039V11.7H2.40039V12.5ZM3.20039 12.5H4.00039V11.7H3.20039V12.5ZM4.00039 12.5H4.80039V11.7H4.00039V12.5ZM4.80039 12.5H5.60039V11.7H4.80039V12.5ZM5.50039 12.5H6.30039V11.7H5.50039V12.5ZM6.30039 12.5H7.10039V11.7H6.30039V12.5ZM7.10039 12.5H7.90039V11.7H7.10039V12.5ZM7.90039 12.5H8.70039V11.7H7.90039V12.5ZM8.70039 12.5H9.50039V11.7H8.70039V12.5ZM10.2004 12.5H11.0004V11.7H10.2004V12.5ZM11.0004 12.5H11.8004V11.7H11.0004V12.5ZM12.6004 12.5H13.4004V11.7H12.6004V12.5ZM14.1004 12.5H14.9004V11.7H14.1004V12.5ZM14.9004 12.5H15.7004V11.7H14.9004V12.5ZM15.7004 12.5H16.5004V11.7H15.7004V12.5ZM16.5004 12.5H17.3004V11.7H16.5004V12.5ZM17.3004 12.5H18.0004V11.7H17.2004V12.5M18.8004 12.5H19.6004V11.7H18.8004V12.5ZM19.6004 12.5H20.4004V11.7H19.6004V12.5ZM0.900391 11.7H1.70039V10.9H0.900391V11.7ZM1.60039 11.7H2.40039V10.9H1.60039V11.7ZM4.00039 11.7H4.80039V10.9H4.00039V11.7ZM8.70039 11.7H9.50039V10.9H8.70039V11.7ZM9.40039 11.7H10.2004V10.9H9.40039V11.7ZM11.8004 11.7H12.6004V10.9H11.8004V11.7ZM13.4004 11.7H14.2004V10.9H13.4004V11.7ZM14.1004 11.7H14.9004V10.9H14.1004V11.7ZM15.7004 11.7H16.5004V10.9H15.7004V11.7ZM17.3004 11.7H18.0004V10.9H17.2004V11.7M18.8004 11.7H19.6004V10.9H18.8004V11.7ZM1.60039 10.9H2.40039V10.1H1.60039V10.9ZM2.40039 10.9H3.20039V10.1H2.40039V10.9ZM3.20039 10.9H4.00039V10.1H3.20039V10.9ZM4.00039 10.9H4.80039V10.1H4.00039V10.9ZM5.50039 10.9H6.30039V10.1H5.50039V10.9ZM7.90039 10.9H8.70039V10.1H7.90039V10.9ZM10.2004 10.9H11.0004V10.1H10.2004V10.9ZM11.0004 10.9H11.8004V10.1H11.0004V10.9ZM11.8004 10.9H12.6004V10.1H11.8004V10.9ZM12.6004 10.9H13.4004V10.1H12.6004V10.9ZM13.4004 10.9H14.2004V10.1H13.4004V10.9ZM14.1004 10.9H14.9004V10.1H14.1004V10.9ZM14.9004 10.9H15.7004V10.1H14.9004V10.9ZM15.7004 10.9H16.5004V10.1H15.7004V10.9ZM16.5004 10.9H17.3004V10.1H16.5004V10.9ZM18.0004 10.9H18.8004V10.1H18.0004V10.9ZM18.8004 10.9H19.6004V10.1H18.8004V10.9ZM19.6004 10.9H20.4004V10.1H19.6004V10.9ZM1.60039 10.1H2.40039V9.29999H1.60039V10.1ZM4.00039 10.1H4.80039V9.29999H4.00039V10.1ZM7.10039 10.1H7.90039V9.29999H7.10039V10.1ZM7.90039 10.1H8.70039V9.29999H7.90039V10.1ZM8.70039 10.1H9.50039V9.29999H8.70039V10.1ZM9.40039 10.1H10.2004V9.29999H9.40039V10.1ZM10.2004 10.1H11.0004V9.29999H10.2004V10.1ZM11.8004 10.1H12.6004V9.29999H11.8004V10.1ZM14.1004 10.1H14.9004V9.29999H14.1004V10.1ZM15.7004 10.1H16.5004V9.29999H15.7004V10.1ZM19.6004 10.1H20.4004V9.29999H19.6004V10.1ZM0.900391 9.40002H1.70039V8.59998H0.900391V9.40002ZM2.40039 9.40002H3.20039V8.59998H2.40039V9.40002ZM4.00039 9.40002H4.80039V8.59998H4.00039V9.40002ZM5.50039 9.40002H6.30039V8.59998H5.50039V9.40002ZM6.30039 9.40002H7.10039V8.59998H6.30039V9.40002ZM7.10039 9.40002H7.90039V8.59998H7.10039V9.40002ZM7.90039 9.40002H8.70039V8.59998H7.90039V9.40002ZM12.6004 9.40002H13.4004V8.59998H12.6004V9.40002ZM14.1004 9.40002H14.9004V8.59998H14.1004V9.40002ZM14.9004 9.40002H15.7004V8.59998H14.9004V9.40002ZM15.7004 9.40002H16.5004V8.59998H15.7004V9.40002ZM16.5004 9.40002H17.3004V8.59998H16.5004V9.40002ZM17.3004 9.40002H18.0004V8.59998H17.2004V9.40002M18.8004 9.40002H19.6004V8.59998H18.8004V9.40002ZM19.6004 9.40002H20.4004V8.59998H19.6004V9.40002ZM0.900391 8.59998H1.70039V7.79999H0.900391V8.59998ZM1.60039 8.59998H2.40039V7.79999H1.60039V8.59998ZM2.40039 8.59998H3.20039V7.79999H2.40039V8.59998ZM4.00039 8.59998H4.80039V7.79999H4.00039V8.59998ZM6.30039 8.59998H7.10039V7.79999H6.30039V8.59998ZM7.90039 8.59998H8.70039V7.79999H7.90039V8.59998ZM9.40039 8.59998H10.2004V7.79999H9.40039V8.59998ZM11.0004 8.59998H11.8004V7.79999H11.0004V8.59998ZM11.8004 8.59998H12.6004V7.79999H11.8004V8.59998ZM13.4004 8.59998H14.2004V7.79999H13.4004V8.59998ZM14.1004 8.59998H14.9004V7.79999H14.1004V8.59998ZM15.7004 8.59998H16.5004V7.79999H15.7004V8.59998ZM18.8004 8.59998H19.6004V7.79999H18.8004V8.59998ZM0.900391 7.79999H1.70039V7H0.900391V7.79999ZM1.60039 7.79999H2.40039V7H1.60039V7.79999ZM2.40039 7.79999H3.20039V7H2.40039V7.79999ZM3.20039 7.79999H4.00039V7H3.20039V7.79999ZM4.00039 7.79999H4.80039V7H4.00039V7.79999ZM5.50039 7.79999H6.30039V7H5.50039V7.79999ZM6.30039 7.79999H7.10039V7H6.30039V7.79999ZM7.10039 7.79999H7.90039V7H7.10039V7.79999ZM7.90039 7.79999H8.70039V7H7.90039V7.79999ZM8.70039 7.79999H9.50039V7H8.70039V7.79999ZM9.40039 7.79999H10.2004V7H9.40039V7.79999ZM10.2004 7.79999H11.0004V7H10.2004V7.79999ZM11.0004 7.79999H11.8004V7H11.0004V7.79999ZM11.8004 7.79999H12.6004V7H11.8004V7.79999ZM12.6004 7.79999H13.4004V7H12.6004V7.79999ZM14.1004 7.79999H14.9004V7H14.1004V7.79999ZM15.7004 7.79999H16.5004V7H15.7004V7.79999ZM17.3004 7.79999H18.0004V7H17.2004V7.79999M18.8004 7.79999H19.6004V7H18.8004V7.79999ZM9.40039 7H10.2004V6.20001H9.40039V7ZM11.8004 7H12.6004V6.20001H11.8004V7ZM12.6004 7H13.4004V6.20001H12.6004V7ZM0.900391 6.20001H1.70039V5.40002H0.900391V6.20001ZM1.60039 6.20001H2.40039V5.40002H1.60039V6.20001ZM2.40039 6.20001H3.20039V5.40002H2.40039V6.20001ZM3.20039 6.20001H4.00039V5.40002H3.20039V6.20001ZM4.00039 6.20001H4.80039V5.40002H4.00039V6.20001ZM4.80039 6.20001H5.60039V5.40002H4.80039V6.20001ZM5.50039 6.20001H6.30039V5.40002H5.50039V6.20001ZM7.10039 6.20001H7.90039V5.40002H7.10039V6.20001ZM8.70039 6.20001H9.50039V5.40002H8.70039V6.20001ZM10.2004 6.20001H11.0004V5.40002H10.2004V6.20001ZM11.8004 6.20001H12.6004V5.40002H11.8004V6.20001ZM13.4004 6.20001H14.2004V5.40002H13.4004V6.20001ZM14.9004 6.20001H15.7004V5.40002H14.9004V6.20001ZM15.7004 6.20001H16.5004V5.40002H15.7004V6.20001ZM16.5004 6.20001H17.3004V5.40002H16.5004V6.20001ZM17.3004 6.20001H18.0004V5.40002H17.2004V6.20001M18.0004 6.20001H18.8004V5.40002H18.0004V6.20001ZM18.8004 6.20001H19.6004V5.40002H18.8004V6.20001ZM19.6004 6.20001H20.4004V5.40002H19.6004V6.20001ZM0.900391 5.5H1.70039V4.70001H0.900391V5.5ZM5.50039 5.5H6.30039V4.70001H5.50039V5.5ZM7.10039 5.5H7.90039V4.70001H7.10039V5.5ZM8.70039 5.5H9.50039V4.70001H8.70039V5.5ZM11.0004 5.5H11.8004V4.70001H11.0004V5.5ZM12.6004 5.5H13.4004V4.70001H12.6004V5.5ZM13.4004 5.5H14.2004V4.70001H13.4004V5.5ZM14.9004 5.5H15.7004V4.70001H14.9004V5.5ZM19.6004 5.5H20.4004V4.70001H19.6004V5.5ZM0.900391 4.70001H1.70039V3.90002H0.900391V4.70001ZM2.40039 4.70001H3.20039V3.90002H2.40039V4.70001ZM3.20039 4.70001H4.00039V3.90002H3.20039V4.70001ZM4.00039 4.70001H4.80039V3.90002H4.00039V4.70001ZM5.50039 4.70001H6.30039V3.90002H5.50039V4.70001ZM9.40039 4.70001H10.2004V3.90002H9.40039V4.70001ZM11.8004 4.70001H12.6004V3.90002H11.8004V4.70001ZM13.4004 4.70001H14.2004V3.90002H13.4004V4.70001ZM14.9004 4.70001H15.7004V3.90002H14.9004V4.70001ZM16.5004 4.70001H17.3004V3.90002H16.5004V4.70001ZM17.3004 4.70001H18.0004V3.90002H17.2004V4.70001M18.0004 4.70001H18.8004V3.90002H18.0004V4.70001ZM19.6004 4.70001H20.4004V3.90002H19.6004V4.70001ZM0.900391 3.90002H1.70039V3.09998H0.900391V3.90002ZM2.40039 3.90002H3.20039V3.09998H2.40039V3.90002ZM3.20039 3.90002H4.00039V3.09998H3.20039V3.90002ZM4.00039 3.90002H4.80039V3.09998H4.00039V3.90002ZM5.50039 3.90002H6.30039V3.09998H5.50039V3.90002ZM7.10039 3.90002H7.90039V3.09998H7.10039V3.90002ZM7.90039 3.90002H8.70039V3.09998H7.90039V3.90002ZM9.40039 3.90002H10.2004V3.09998H9.40039V3.90002ZM10.2004 3.90002H11.0004V3.09998H10.2004V3.90002ZM11.0004 3.90002H11.8004V3.09998H11.0004V3.90002ZM11.8004 3.90002H12.6004V3.09998H11.8004V3.90002ZM12.6004 3.90002H13.4004V3.09998H12.6004V3.90002ZM14.9004 3.90002H15.7004V3.09998H14.9004V3.90002ZM16.5004 3.90002H17.3004V3.09998H16.5004V3.90002ZM17.3004 3.90002H18.0004V3.09998H17.2004V3.90002M18.0004 3.90002H18.8004V3.09998H18.0004V3.90002ZM19.6004 3.90002H20.4004V3.09998H19.6004V3.90002ZM0.900391 3.09998H1.70039V2.29999H0.900391V3.09998ZM2.40039 3.09998H3.20039V2.29999H2.40039V3.09998ZM3.20039 3.09998H4.00039V2.29999H3.20039V3.09998ZM4.00039 3.09998H4.80039V2.29999H4.00039V3.09998ZM5.50039 3.09998H6.30039V2.29999H5.50039V3.09998ZM7.90039 3.09998H8.70039V2.29999H7.90039V3.09998ZM8.70039 3.09998H9.50039V2.29999H8.70039V3.09998ZM11.8004 3.09998H12.6004V2.29999H11.8004V3.09998ZM12.6004 3.09998H13.4004V2.29999H12.6004V3.09998ZM14.9004 3.09998H15.7004V2.29999H14.9004V3.09998ZM16.5004 3.09998H17.3004V2.29999H16.5004V3.09998ZM17.3004 3.09998H18.0004V2.29999H17.2004V3.09998M18.0004 3.09998H18.8004V2.29999H18.0004V3.09998ZM19.6004 3.09998H20.4004V2.29999H19.6004V3.09998ZM0.900391 2.29999H1.70039V1.5H0.900391V2.29999ZM5.50039 2.29999H6.30039V1.5H5.50039V2.29999ZM7.10039 2.29999H7.90039V1.5H7.10039V2.29999ZM8.70039 2.29999H9.50039V1.5H8.70039V2.29999ZM11.0004 2.29999H11.8004V1.5H11.0004V2.29999ZM12.6004 2.29999H13.4004V1.5H12.6004V2.29999ZM13.4004 2.29999H14.2004V1.5H13.4004V2.29999ZM14.9004 2.29999H15.7004V1.5H14.9004V2.29999ZM19.6004 2.29999H20.4004V1.5H19.6004V2.29999ZM0.900391 1.5H1.70039V0.700012H0.900391V1.5ZM1.60039 1.5H2.40039V0.700012H1.60039V1.5ZM2.40039 1.5H3.20039V0.700012H2.40039V1.5ZM3.20039 1.5H4.00039V0.700012H3.20039V1.5ZM4.00039 1.5H4.80039V0.700012H4.00039V1.5ZM4.80039 1.5H5.60039V0.700012H4.80039V1.5ZM5.50039 1.5H6.30039V0.700012H5.50039V1.5ZM9.40039 1.5H10.2004V0.700012H9.40039V1.5ZM10.2004 1.5H11.0004V0.700012H10.2004V1.5ZM11.0004 1.5H11.8004V0.700012H11.0004V1.5ZM13.4004 1.5H14.2004V0.700012H13.4004V1.5ZM14.9004 1.5H15.7004V0.700012H14.9004V1.5ZM15.7004 1.5H16.5004V0.700012H15.7004V1.5ZM16.5004 1.5H17.3004V0.700012H16.5004V1.5ZM17.3004 1.5H18.0004V0.700012H17.2004V1.5M18.0004 1.5H18.8004V0.700012H18.0004V1.5ZM18.8004 1.5H19.6004V0.700012H18.8004V1.5ZM19.6004 1.5H20.4004V0.700012H19.6004V1.5Z" fill="white"/>
</svg>
