<svg width="5" height="5" viewBox="0 0 5 5" fill="none" xmlns="http://www.w3.org/2000/svg">
<path d="M4.89809 3.79999L4.39809 3.5L3.99809 3.20001C3.89809 3.10001 3.79809 3.20001 3.79809 3.20001L3.49809 3.5C3.39809 3.6 3.29809 3.59998 3.29809 3.59998C3.09809 3.49998 2.89809 3.4 2.49809 3C2.09809 2.5 1.99809 2.30001 1.89809 2.20001C1.89809 2.10001 1.89809 2 1.99809 2L2.29809 1.70001C2.39809 1.60001 2.39809 1.5 2.29809 1.5L1.99809 1L1.69808 0.5C1.59808 0.4 1.49809 0.400024 1.49809 0.400024L1.09808 0.599976C0.998084 0.699976 0.898087 0.800024 0.898087 0.900024C0.798087 1.30002 0.798084 2.10002 2.09808 3.40002C3.39808 4.70002 4.19809 4.69998 4.49809 4.59998C4.59809 4.59998 4.69809 4.50002 4.79809 4.40002L4.99809 4C4.99809 3.9 4.99809 3.79999 4.89809 3.79999ZM3.19808 1C3.09808 1 3.09808 1 3.19808 1C3.09808 1.1 3.19808 1.09998 3.19808 1.09998C3.89808 1.09998 4.39809 1.59999 4.39809 2.29999C4.39809 2.29999 4.39809 2.40002 4.49809 2.40002C4.59809 2.40002 4.59808 2.39999 4.59808 2.29999C4.49808 1.59999 3.89808 1 3.19808 1ZM3.19808 1.40002C3.09808 1.40002 3.09808 1.40002 3.19808 1.40002C3.09808 1.50002 3.19808 1.5 3.19808 1.5C3.59808 1.5 3.99809 1.89999 3.99809 2.29999C3.99809 2.29999 3.99808 2.40002 4.09808 2.40002C4.09808 2.40002 4.19808 2.39999 4.19808 2.29999C4.09808 1.79999 3.69808 1.40002 3.19808 1.40002ZM3.19808 1.79999C3.09808 1.79999 3.09808 1.89999 3.19808 1.79999C3.09808 1.89999 3.19808 1.90002 3.19808 1.90002C3.39808 1.90002 3.59808 2.09999 3.59808 2.29999C3.59808 2.29999 3.59808 2.40002 3.69808 2.40002C3.79808 2.40002 3.79809 2.39999 3.79809 2.29999C3.69809 1.99999 3.39808 1.79999 3.19808 1.79999Z" fill="white"/>
</svg>
