<svg width="5" height="5" viewBox="0 0 5 5" fill="none" xmlns="http://www.w3.org/2000/svg">
<path d="M2.90077 2.70001H1.30078C1.30078 2.90001 1.30078 3.10001 1.30078 3.20001C1.30078 3.20001 1.30077 3.20001 1.40077 3.20001C1.60077 3.10001 1.90078 3.09998 2.20078 3.09998C2.50078 3.09998 2.70078 3.10001 3.00078 3.20001C3.00078 3.20001 3.00078 3.20001 3.10078 3.20001C3.00078 3.10001 3.00077 2.90001 2.90077 2.70001C3.00077 2.70001 3.00077 2.70001 2.90077 2.70001Z" fill="white"/>
<path d="M2.89922 1.79999C2.59922 1.79999 2.39923 1.90002 2.09923 1.90002C1.79923 1.90002 1.59922 1.89999 1.29922 1.79999C1.29922 1.79999 1.29922 1.79999 1.19922 1.79999C1.19922 1.99999 1.19922 2.19999 1.19922 2.29999H2.79922C2.99922 2.19999 2.99922 1.99999 2.89922 1.79999Z" fill="white"/>
<path d="M2.60001 0.5C2.40001 0.5 2.3 0.400024 2.2 0.400024C2.1 0.400024 1.9 0.400024 1.8 0.400024C1.7 0.600024 1.6 1.00002 1.5 1.40002C1.7 1.50002 2 1.5 2.2 1.5C2.5 1.5 2.69999 1.50002 2.89999 1.40002C2.79999 1.10002 2.70001 0.7 2.60001 0.5Z" fill="white"/>
<path d="M3.70039 1.09998C3.60039 1.09998 3.60039 1.09998 3.70039 1.09998C3.50039 0.899976 3.3004 0.699976 3.0004 0.599976C3.0004 0.599976 2.90039 0.600012 2.90039 0.700012C3.00039 0.900012 3.0004 1.10002 3.1004 1.40002C3.1004 1.40002 3.10039 1.40002 3.20039 1.40002C3.30039 1.30002 3.50039 1.29998 3.70039 1.09998Z" fill="white"/>
<path d="M3.89922 1.40002C3.69922 1.50002 3.49922 1.60001 3.29922 1.70001H3.19922C3.19922 1.90001 3.19922 2.09999 3.19922 2.29999H4.09923C4.19923 1.99999 4.09922 1.70002 3.89922 1.40002Z" fill="white"/>
<path d="M2.89999 3.5C2.69999 3.4 2.4 3.40002 2.2 3.40002C2 3.40002 1.7 3.4 1.5 3.5C1.6 3.9 1.7 4.2 1.8 4.5C1.9 4.5 2.1 4.5 2.2 4.5C2.3 4.5 2.50001 4.5 2.60001 4.5C2.70001 4.3 2.79999 4 2.89999 3.5C2.89999 3.6 2.89999 3.6 2.89999 3.5Z" fill="white"/>
<path d="M0.999603 2.70001H0.0996094C0.0996094 3.10001 0.199597 3.40001 0.399597 3.70001C0.399597 3.70001 0.399603 3.70001 0.499603 3.70001C0.699603 3.60001 0.799603 3.50002 0.999603 3.40002H1.09961C1.09961 3.10002 0.999603 2.90001 0.999603 2.70001Z" fill="white"/>
<path d="M3.60078 3.90002C3.50078 3.80002 3.30078 3.70001 3.10078 3.70001H3.00078C3.00078 4.00001 2.90078 4.20002 2.80078 4.40002C2.80078 4.40002 2.80077 4.50002 2.90077 4.40002C3.10077 4.30002 3.30078 4.2 3.50078 4C3.60078 4 3.60078 4.00002 3.60078 3.90002C3.70078 3.90002 3.70078 3.90002 3.60078 3.90002Z" fill="white"/>
<path d="M4.20078 2.70001H3.30078C3.30078 2.90001 3.30078 3.09999 3.30078 3.29999H3.40077C3.60077 3.39999 3.70077 3.49998 3.90077 3.59998C3.90077 3.59998 3.90078 3.59998 4.00078 3.59998C4.10078 3.39998 4.20078 3.10001 4.20078 2.70001Z" fill="white"/>
<path d="M1.29961 0.599976C1.09961 0.699976 0.8996 0.8 0.6996 1C0.6996 1 0.699609 0.999976 0.599609 1.09998V1.20001C0.699609 1.30001 0.899609 1.40002 1.09961 1.40002H1.1996C1.1996 1.10002 1.19961 0.899976 1.29961 0.599976C1.29961 0.699976 1.29961 0.699976 1.29961 0.599976Z" fill="white"/>
<path d="M1 1.70001H0.899994C0.699994 1.60001 0.599994 1.50002 0.399994 1.40002C0.399994 1.40002 0.400003 1.40002 0.300003 1.40002C0.100003 1.70002 0 2.00002 0 2.40002H0.899994C0.999994 2.20002 1 1.90001 1 1.70001C1.1 1.70001 1.1 1.70001 1 1.70001Z" fill="white"/>
<path d="M1.09961 3.70001C0.899609 3.70001 0.699609 3.80002 0.599609 3.90002C0.599609 3.90002 0.599609 3.9 0.599609 4C0.599609 4 0.5996 3.99998 0.6996 4.09998C0.8996 4.29998 1.09961 4.4 1.29961 4.5C1.29961 4.5 1.3996 4.50002 1.3996 4.40002C1.1996 4.20002 1.19961 3.90001 1.09961 3.70001Z" fill="white"/>
</svg>
